# xmcd
#
# Track frame offsets:
# 150
# 20158
# 38506
# 55724
# 71722
# 89953
# 109800
# 127988
# 149477
# 172194
# 193516
# 214400
# 233906
# 255510
# 272549
# 293346
#
# Disc length: 4163 seconds
#
#
# Revision: 0
# Processed by: cddbd v1.5.1PL0 Copyright (c) Steve Scherf et al.
# Submitted via: FreeRIP 2.70 
#
DISCID=f2104110
DTITLE=Latinos  - varios autores
DYEAR=2005
DGENRE=A Cappella
TTITLE0=1
TTITLE1=2
TTITLE2=3
TTITLE3=4
TTITLE4=5
TTITLE5=6
TTITLE6=7
TTITLE7=8
TTITLE8=9
TTITLE9=10
TTITLE10=11
TTITLE11=12
TTITLE12=13
TTITLE13=14
TTITLE14=15
TTITLE15=16
EXTD=fermani Record fermani2003@hotmail.com
EXTT0=
EXTT1=
EXTT2=
EXTT3=
EXTT4=
EXTT5=
EXTT6=
EXTT7=
EXTT8=
EXTT9=
EXTT10=
EXTT11=
EXTT12=
EXTT13=
EXTT14=
EXTT15=
PLAYORDER=
